<?xml version="1.0" encoding="utf-8"?>
<!-- Generator: Adobe Illustrator 27.5.0, SVG Export Plug-In . SVG Version: 6.00 Build 0)  -->
<svg version="1.1" id="Layer_2" xmlns="http://www.w3.org/2000/svg" xmlns:xlink="http://www.w3.org/1999/xlink" x="0px" y="0px"
	 viewBox="0 0 2000 2000" style="enable-background:new 0 0 2000 2000;" xml:space="preserve">
<g>
	<g>
		
			<rect x="897.546" y="302.921" transform="matrix(-0.914 0.4056 -0.4056 -0.914 2384.1587 893.3339)" style="fill:#317F45;" width="399.745" height="792.761"/>
		
			<rect x="897.546" y="302.921" transform="matrix(-0.914 0.4056 -0.4056 -0.914 2384.1587 893.3339)" style="fill:none;stroke:#3F0000;stroke-width:18;stroke-miterlimit:10;" width="399.745" height="792.761"/>
		<path style="fill:#7AC76E;" d="M842.761,417.11l216.256-95.972c10.401,23.436,37.831,34.003,61.267,23.603l255.395,575.486
			c-23.436,10.401-34.004,37.831-23.603,61.267l-216.257,95.972c-10.401-23.436-37.831-34.003-61.267-23.603L819.158,478.377
			C842.594,467.976,853.161,440.546,842.761,417.11z"/>
		<path style="fill:none;stroke:#3F0000;stroke-width:18;stroke-miterlimit:10;" d="M842.761,417.11l216.256-95.972
			c10.401,23.436,37.831,34.003,61.267,23.603l255.395,575.486c-23.436,10.401-34.004,37.831-23.603,61.267l-216.257,95.972
			c-10.401-23.436-37.831-34.003-61.267-23.603L819.158,478.377C842.594,467.976,853.161,440.546,842.761,417.11z"/>
		
			<ellipse transform="matrix(0.7071 -0.7071 0.7071 0.7071 -173.0546 980.8126)" style="fill:#317F45;" cx="1097.418" cy="699.302" rx="131.408" ry="131.407"/>
		<g>
			<path style="fill:#7AC76E;" d="M1022.417,723.889l19.565-8.683c-4.793-11.321-6.463-24.491-4.629-33.419l15.042-1.11
				c-1.554,9.036-0.765,20.742,4.05,31.59c6.104,13.753,18.172,19.527,29.214,14.627c10.654-4.728,13.887-15.206,13.337-32.12
				c-1.021-23.197,2.475-39.355,19.327-46.834c16.078-7.135,33.354-1.122,44.168,15.409l19.565-8.683l5.33,12.01l-18.79,8.339
				c4.77,11.794,5.196,21.112,4.396,28.191l-14.934,0.832c0.519-5.1,1.256-14.933-4.246-27.331
				c-6.619-14.915-18.024-16.579-25.772-13.141c-10.073,4.47-11.928,13.874-11.422,33.821c0.719,23.562-4.884,38.106-22.125,45.757
				c-15.303,6.791-34.366,2.498-46.513-15.992l-20.146,8.94L1022.417,723.889z"/>
		</g>
	</g>
	<g>
		
			<rect x="810.414" y="321.86" transform="matrix(-0.6364 0.7713 -0.7713 -0.6364 2207.2659 396.0814)" style="fill:#317F45;" width="399.745" height="792.761"/>
		
			<rect x="810.414" y="321.86" transform="matrix(-0.6364 0.7713 -0.7713 -0.6364 2207.2659 396.0814)" style="fill:none;stroke:#3F0000;stroke-width:18;stroke-miterlimit:10;" width="399.745" height="792.761"/>
		<path style="fill:#7AC76E;" d="M656.367,579.59l150.576-182.495c19.777,16.318,49.039,13.514,65.357-6.263l485.643,400.703
			c-16.318,19.777-13.514,49.039,6.263,65.357l-150.577,182.494c-19.777-16.318-49.038-13.514-65.357,6.263L662.63,644.946
			C678.948,625.169,676.144,595.908,656.367,579.59z"/>
		<path style="fill:none;stroke:#3F0000;stroke-width:18;stroke-miterlimit:10;" d="M656.367,579.59l150.576-182.495
			c19.777,16.318,49.039,13.514,65.357-6.263l485.643,400.703c-16.318,19.777-13.514,49.039,6.263,65.357l-150.577,182.494
			c-19.777-16.318-49.038-13.514-65.357,6.263L662.63,644.946C678.948,625.169,676.144,595.908,656.367,579.59z"/>
		<circle style="fill:#317F45;" cx="1010.286" cy="718.241" r="131.407"/>
		<g>
			<path style="fill:#7AC76E;" d="M954.176,773.752l13.623-16.51c-9.347-7.986-16.727-19.022-19.076-27.828l12.96-7.715
				c2.647,8.779,8.585,18.897,17.74,26.451c11.606,9.576,24.983,9.349,32.671,0.031c7.418-8.991,5.628-19.809-2.422-34.694
				c-11.279-20.296-15.373-36.313-3.639-50.535c11.195-13.568,29.337-15.908,46.399-5.952l13.623-16.51l10.135,8.363l-13.083,15.857
				c9.538,8.419,14.083,16.565,16.53,23.255l-12.988,7.418c-1.814-4.794-5.549-13.921-16.011-22.553
				c-12.587-10.385-23.533-6.778-28.928-0.239c-7.014,8.5-4.471,17.742,4.895,35.361c11.172,20.758,12.659,36.272,0.655,50.821
				c-10.655,12.914-29.627,17.592-48.757,6.479l-14.027,17.001L954.176,773.752z"/>
		</g>
	</g>
	<path style="fill:#9B2626;" d="M1493.902,1547.376H500.445c-37.796,0-68.436-30.64-68.436-68.436V755.538
		c0-37.796,30.64-68.436,68.436-68.436h993.457c37.796,0,68.436,30.64,68.436,68.436v723.403
		C1562.338,1516.737,1531.698,1547.376,1493.902,1547.376z"/>
	<path style="fill:none;stroke:#3F0000;stroke-width:18;stroke-miterlimit:10;" d="M1493.902,1547.376H500.445
		c-37.796,0-68.436-30.64-68.436-68.436V755.538c0-37.796,30.64-68.436,68.436-68.436h993.457c37.796,0,68.436,30.64,68.436,68.436
		v723.403C1562.338,1516.737,1531.698,1547.376,1493.902,1547.376z"/>
	<g>
		<path style="fill:#D1654A;" d="M1428.116,1500.511h-28.64c-2.876,0-5.207-2.332-5.207-5.207s2.331-5.207,5.207-5.207h28.64
			c2.876,0,5.207,2.332,5.207,5.207S1430.992,1500.511,1428.116,1500.511z M1370.837,1500.511h-28.64
			c-2.876,0-5.207-2.332-5.207-5.207s2.332-5.207,5.207-5.207h28.64c2.876,0,5.207,2.332,5.207,5.207
			S1373.712,1500.511,1370.837,1500.511z M1313.557,1500.511h-28.64c-2.876,0-5.207-2.332-5.207-5.207s2.332-5.207,5.207-5.207
			h28.64c2.876,0,5.207,2.332,5.207,5.207S1316.433,1500.511,1313.557,1500.511z M1256.278,1500.511h-28.64
			c-2.876,0-5.207-2.332-5.207-5.207s2.332-5.207,5.207-5.207h28.64c2.876,0,5.207,2.332,5.207,5.207
			S1259.153,1500.511,1256.278,1500.511z M1198.998,1500.511h-28.64c-2.876,0-5.207-2.332-5.207-5.207s2.332-5.207,5.207-5.207
			h28.64c2.876,0,5.207,2.332,5.207,5.207S1201.874,1500.511,1198.998,1500.511z M1141.719,1500.511h-28.64
			c-2.876,0-5.207-2.332-5.207-5.207s2.331-5.207,5.207-5.207h28.64c2.876,0,5.207,2.332,5.207,5.207
			S1144.594,1500.511,1141.719,1500.511z M1084.439,1500.511h-28.64c-2.876,0-5.207-2.332-5.207-5.207s2.332-5.207,5.207-5.207
			h28.64c2.876,0,5.207,2.332,5.207,5.207S1087.315,1500.511,1084.439,1500.511z M1027.16,1500.511h-28.64
			c-2.876,0-5.207-2.332-5.207-5.207s2.332-5.207,5.207-5.207h28.64c2.876,0,5.207,2.332,5.207,5.207
			S1030.036,1500.511,1027.16,1500.511z M969.88,1500.511h-28.64c-2.876,0-5.207-2.332-5.207-5.207s2.331-5.207,5.207-5.207h28.64
			c2.876,0,5.207,2.332,5.207,5.207S972.756,1500.511,969.88,1500.511z M912.601,1500.511h-28.64c-2.876,0-5.207-2.332-5.207-5.207
			s2.332-5.207,5.207-5.207h28.64c2.876,0,5.207,2.332,5.207,5.207S915.477,1500.511,912.601,1500.511z M855.321,1500.511h-28.64
			c-2.876,0-5.207-2.332-5.207-5.207s2.331-5.207,5.207-5.207h28.64c2.876,0,5.207,2.332,5.207,5.207
			S858.197,1500.511,855.321,1500.511z M798.042,1500.511h-28.64c-2.876,0-5.207-2.332-5.207-5.207s2.332-5.207,5.207-5.207h28.64
			c2.876,0,5.207,2.332,5.207,5.207S800.918,1500.511,798.042,1500.511z M740.763,1500.511h-28.64c-2.876,0-5.207-2.332-5.207-5.207
			s2.332-5.207,5.207-5.207h28.64c2.876,0,5.207,2.332,5.207,5.207S743.638,1500.511,740.763,1500.511z M683.483,1500.511h-28.64
			c-2.876,0-5.207-2.332-5.207-5.207s2.331-5.207,5.207-5.207h28.64c2.876,0,5.207,2.332,5.207,5.207
			S686.359,1500.511,683.483,1500.511z M626.204,1500.511h-28.64c-2.876,0-5.207-2.332-5.207-5.207s2.332-5.207,5.207-5.207h28.64
			c2.876,0,5.207,2.332,5.207,5.207S629.079,1500.511,626.204,1500.511z M568.924,1500.511h-24.624
			c-10.408,0-20.767-2.506-29.957-7.246c-2.555-1.318-3.558-4.458-2.24-7.015c1.32-2.557,4.461-3.558,7.015-2.24
			c7.83,4.039,16.302,6.087,25.182,6.087h24.624c2.876,0,5.207,2.332,5.207,5.207S571.8,1500.511,568.924,1500.511z
			 M1456.733,1500.145c-2.62,0-4.874-1.97-5.169-4.635c-0.317-2.858,1.744-5.431,4.603-5.747c8.66-0.959,17.076-4.021,24.336-8.856
			c2.393-1.594,5.627-0.944,7.22,1.447c1.594,2.394,0.946,5.627-1.448,7.221c-8.64,5.755-18.655,9.399-28.964,10.539
			C1457.118,1500.135,1456.923,1500.145,1456.733,1500.145z M495.286,1475.28c-1.623,0-3.223-0.756-4.24-2.179
			c-6.041-8.45-10.018-18.34-11.499-28.598c-0.411-2.846,1.564-5.487,4.41-5.898c2.835-0.412,5.486,1.564,5.897,4.41
			c1.243,8.617,4.586,16.926,9.663,24.029c1.673,2.339,1.132,5.591-1.208,7.264C497.392,1474.964,496.335,1475.28,495.286,1475.28z
			 M1502.648,1469.623c-0.859,0-1.73-0.214-2.534-0.662c-2.511-1.402-3.41-4.575-2.007-7.086c4.244-7.595,6.636-16.225,6.921-24.959
			c0.094-2.874,2.454-5.109,5.375-5.036c2.874,0.094,5.128,2.501,5.034,5.375c-0.339,10.388-3.187,20.658-8.238,29.7
			C1506.246,1468.66,1504.474,1469.623,1502.648,1469.623z M484.082,1420.359c-2.876,0-5.207-2.332-5.207-5.207v-28.64
			c0-2.876,2.332-5.207,5.207-5.207c2.876,0,5.207,2.332,5.207,5.207v28.64C489.289,1418.027,486.958,1420.359,484.082,1420.359z
			 M1510.266,1413.652c-2.876,0-5.207-2.331-5.207-5.207v-28.64c0-2.876,2.332-5.207,5.207-5.207c2.876,0,5.207,2.332,5.207,5.207
			v28.64C1515.473,1411.321,1513.141,1413.652,1510.266,1413.652z M484.082,1363.079c-2.876,0-5.207-2.332-5.207-5.207v-28.64
			c0-2.876,2.332-5.207,5.207-5.207c2.876,0,5.207,2.331,5.207,5.207v28.64C489.289,1360.748,486.958,1363.079,484.082,1363.079z
			 M1510.266,1356.373c-2.876,0-5.207-2.332-5.207-5.207v-28.64c0-2.876,2.332-5.207,5.207-5.207c2.876,0,5.207,2.332,5.207,5.207
			v28.64C1515.473,1354.042,1513.141,1356.373,1510.266,1356.373z M484.082,1305.8c-2.876,0-5.207-2.332-5.207-5.207v-28.64
			c0-2.876,2.332-5.207,5.207-5.207c2.876,0,5.207,2.332,5.207,5.207v28.64C489.289,1303.468,486.958,1305.8,484.082,1305.8z
			 M1510.266,1299.094c-2.876,0-5.207-2.332-5.207-5.207v-28.64c0-2.876,2.332-5.207,5.207-5.207c2.876,0,5.207,2.331,5.207,5.207
			v28.64C1515.473,1296.762,1513.141,1299.094,1510.266,1299.094z M484.082,1248.521c-2.876,0-5.207-2.332-5.207-5.208v-28.64
			c0-2.876,2.332-5.207,5.207-5.207c2.876,0,5.207,2.332,5.207,5.207v28.64C489.289,1246.189,486.958,1248.521,484.082,1248.521z
			 M1510.266,1241.814c-2.876,0-5.207-2.332-5.207-5.207v-28.64c0-2.876,2.332-5.207,5.207-5.207c2.876,0,5.207,2.332,5.207,5.207
			v28.64C1515.473,1239.483,1513.141,1241.814,1510.266,1241.814z M484.082,1191.241c-2.876,0-5.207-2.332-5.207-5.207v-28.64
			c0-2.876,2.332-5.207,5.207-5.207c2.876,0,5.207,2.332,5.207,5.207v28.64C489.289,1188.91,486.958,1191.241,484.082,1191.241z
			 M1510.266,1184.535c-2.876,0-5.207-2.332-5.207-5.207v-28.64c0-2.876,2.332-5.207,5.207-5.207c2.876,0,5.207,2.332,5.207,5.207
			v28.64C1515.473,1182.203,1513.141,1184.535,1510.266,1184.535z M484.082,1133.962c-2.876,0-5.207-2.332-5.207-5.207v-28.64
			c0-2.876,2.332-5.207,5.207-5.207c2.876,0,5.207,2.331,5.207,5.207v28.64C489.289,1131.63,486.958,1133.962,484.082,1133.962z
			 M1510.266,1127.255c-2.876,0-5.207-2.331-5.207-5.207v-28.64c0-2.876,2.332-5.207,5.207-5.207c2.876,0,5.207,2.332,5.207,5.207
			v28.64C1515.473,1124.924,1513.141,1127.255,1510.266,1127.255z M484.082,1076.683c-2.876,0-5.207-2.332-5.207-5.207v-28.64
			c0-2.876,2.332-5.207,5.207-5.207c2.876,0,5.207,2.332,5.207,5.207v28.64C489.289,1074.351,486.958,1076.683,484.082,1076.683z
			 M1510.266,1069.976c-2.876,0-5.207-2.332-5.207-5.207v-28.64c0-2.876,2.332-5.207,5.207-5.207c2.876,0,5.207,2.332,5.207,5.207
			v28.64C1515.473,1067.644,1513.141,1069.976,1510.266,1069.976z M484.082,1019.403c-2.876,0-5.207-2.331-5.207-5.207v-28.64
			c0-2.876,2.332-5.207,5.207-5.207c2.876,0,5.207,2.331,5.207,5.207v28.64C489.289,1017.072,486.958,1019.403,484.082,1019.403z
			 M1510.266,1012.696c-2.876,0-5.207-2.331-5.207-5.207v-28.64c0-2.876,2.332-5.207,5.207-5.207c2.876,0,5.207,2.332,5.207,5.207
			v28.64C1515.473,1010.365,1513.141,1012.696,1510.266,1012.696z M484.082,962.124c-2.876,0-5.207-2.332-5.207-5.207v-28.64
			c0-2.876,2.332-5.207,5.207-5.207c2.876,0,5.207,2.332,5.207,5.207v28.64C489.289,959.792,486.958,962.124,484.082,962.124z
			 M1510.266,955.417c-2.876,0-5.207-2.332-5.207-5.207v-28.64c0-2.876,2.332-5.207,5.207-5.207c2.876,0,5.207,2.332,5.207,5.207
			v28.64C1515.473,953.085,1513.141,955.417,1510.266,955.417z M484.082,904.844c-2.876,0-5.207-2.332-5.207-5.207v-28.64
			c0-2.876,2.332-5.207,5.207-5.207c2.876,0,5.207,2.332,5.207,5.207v28.64C489.289,902.513,486.958,904.844,484.082,904.844z
			 M1510.266,898.138c-2.876,0-5.207-2.332-5.207-5.207v-28.64c0-2.876,2.332-5.207,5.207-5.207c2.876,0,5.207,2.332,5.207,5.207
			v28.64C1515.473,895.806,1513.141,898.138,1510.266,898.138z M484.082,847.565c-2.876,0-5.207-2.332-5.207-5.207v-28.64
			c0-2.876,2.332-5.207,5.207-5.207c2.876,0,5.207,2.332,5.207,5.207v28.64C489.289,845.233,486.958,847.565,484.082,847.565z
			 M1510.266,840.858c-2.876,0-5.207-2.331-5.207-5.207v-28.64c0-2.876,2.332-5.207,5.207-5.207c2.876,0,5.207,2.332,5.207,5.207
			v28.64C1515.473,838.527,1513.141,840.858,1510.266,840.858z M485.764,790.425c-0.404,0-0.815-0.048-1.226-0.147
			c-2.796-0.674-4.514-3.488-3.84-6.283c2.429-10.063,7.31-19.537,14.115-27.4c1.883-2.174,5.17-2.412,7.346-0.529
			c2.174,1.882,2.41,5.17,0.529,7.345c-5.722,6.611-9.824,14.573-11.865,23.028C490.246,788.823,488.115,790.425,485.764,790.425z
			 M1506.654,784.008c-2.127,0-4.123-1.313-4.893-3.427c-2.976-8.174-7.942-15.634-14.359-21.574
			c-2.11-1.953-2.239-5.247-0.285-7.358c1.951-2.11,5.247-2.239,7.358-0.285c7.628,7.059,13.532,15.93,17.072,25.653
			c0.984,2.702-0.409,5.691-3.112,6.675C1507.848,783.906,1507.246,784.008,1506.654,784.008z M521.828,748.716
			c-2.062,0-4.015-1.233-4.832-3.264c-1.073-2.668,0.219-5.701,2.887-6.775c7.764-3.125,15.979-4.71,24.418-4.71h5.604
			c2.876,0,5.207,2.332,5.207,5.207c0,2.876-2.331,5.207-5.207,5.207h-5.604c-7.1,0-14.007,1.331-20.53,3.956
			C523.134,748.595,522.475,748.716,521.828,748.716z M1466.176,746.566c-0.46,0-0.928-0.062-1.395-0.191
			c-4.771-1.323-9.728-1.994-14.734-1.994h-12.311c-2.876,0-5.207-2.332-5.207-5.207c0-2.876,2.332-5.207,5.207-5.207h12.311
			c5.946,0,11.84,0.798,17.519,2.373c2.77,0.768,4.395,3.638,3.626,6.409C1470.552,745.055,1468.458,746.566,1466.176,746.566z
			 M1409.096,744.381h-28.64c-2.876,0-5.207-2.332-5.207-5.207c0-2.876,2.332-5.207,5.207-5.207h28.64
			c2.876,0,5.207,2.332,5.207,5.207C1414.303,742.05,1411.972,744.381,1409.096,744.381z M1351.817,744.381h-28.64
			c-2.876,0-5.207-2.332-5.207-5.207c0-2.876,2.332-5.207,5.207-5.207h28.64c2.876,0,5.207,2.332,5.207,5.207
			C1357.024,742.05,1354.692,744.381,1351.817,744.381z M1294.537,744.381h-28.64c-2.876,0-5.207-2.332-5.207-5.207
			c0-2.876,2.332-5.207,5.207-5.207h28.64c2.876,0,5.207,2.332,5.207,5.207C1299.744,742.05,1297.413,744.381,1294.537,744.381z
			 M1237.258,744.381h-28.64c-2.876,0-5.207-2.332-5.207-5.207c0-2.876,2.332-5.207,5.207-5.207h28.64
			c2.876,0,5.207,2.332,5.207,5.207C1242.465,742.05,1240.133,744.381,1237.258,744.381z M1179.978,744.381h-28.64
			c-2.876,0-5.207-2.332-5.207-5.207c0-2.876,2.332-5.207,5.207-5.207h28.64c2.876,0,5.207,2.332,5.207,5.207
			C1185.186,742.05,1182.854,744.381,1179.978,744.381z M1122.699,744.381h-28.64c-2.876,0-5.207-2.332-5.207-5.207
			c0-2.876,2.332-5.207,5.207-5.207h28.64c2.876,0,5.207,2.332,5.207,5.207C1127.906,742.05,1125.575,744.381,1122.699,744.381z
			 M1065.419,744.381h-28.64c-2.876,0-5.207-2.332-5.207-5.207c0-2.876,2.332-5.207,5.207-5.207h28.64
			c2.876,0,5.207,2.332,5.207,5.207C1070.627,742.05,1068.295,744.381,1065.419,744.381z M1008.14,744.381H979.5
			c-2.876,0-5.207-2.332-5.207-5.207c0-2.876,2.331-5.207,5.207-5.207h28.64c2.876,0,5.207,2.332,5.207,5.207
			C1013.347,742.05,1011.016,744.381,1008.14,744.381z M950.861,744.381h-28.64c-2.876,0-5.207-2.332-5.207-5.207
			c0-2.876,2.332-5.207,5.207-5.207h28.64c2.876,0,5.207,2.332,5.207,5.207C956.068,742.05,953.736,744.381,950.861,744.381z
			 M893.581,744.381h-28.64c-2.876,0-5.207-2.332-5.207-5.207c0-2.876,2.331-5.207,5.207-5.207h28.64
			c2.876,0,5.207,2.332,5.207,5.207C898.788,742.05,896.457,744.381,893.581,744.381z M836.302,744.381h-28.64
			c-2.876,0-5.207-2.332-5.207-5.207c0-2.876,2.332-5.207,5.207-5.207h28.64c2.876,0,5.207,2.332,5.207,5.207
			C841.509,742.05,839.177,744.381,836.302,744.381z M779.022,744.381h-28.64c-2.876,0-5.207-2.332-5.207-5.207
			c0-2.876,2.332-5.207,5.207-5.207h28.64c2.876,0,5.207,2.332,5.207,5.207C784.229,742.05,781.898,744.381,779.022,744.381z
			 M721.743,744.381h-28.64c-2.876,0-5.207-2.332-5.207-5.207c0-2.876,2.332-5.207,5.207-5.207h28.64
			c2.876,0,5.207,2.332,5.207,5.207C726.95,742.05,724.619,744.381,721.743,744.381z M664.463,744.381h-28.64
			c-2.876,0-5.207-2.332-5.207-5.207c0-2.876,2.332-5.207,5.207-5.207h28.64c2.876,0,5.207,2.332,5.207,5.207
			C669.671,742.05,667.339,744.381,664.463,744.381z M607.184,744.381h-28.64c-2.876,0-5.207-2.332-5.207-5.207
			c0-2.876,2.332-5.207,5.207-5.207h28.64c2.876,0,5.207,2.332,5.207,5.207C612.391,742.05,610.06,744.381,607.184,744.381z"/>
	</g>
	<path style="fill:#9B2626;" d="M1593.748,1206.329H1396.38c-22.638,0-40.99-18.352-40.99-40.99v-96.2
		c0-22.638,18.352-40.99,40.99-40.99h197.368c14.173,0,25.663,11.49,25.663,25.663v126.853
		C1619.411,1194.839,1607.921,1206.329,1593.748,1206.329z"/>
	<path style="fill:none;stroke:#D1654A;stroke-width:5;stroke-linecap:round;stroke-miterlimit:10;stroke-dasharray:22;" d="
		M1380.123,1159.605v-84.731c0-12.145,9.845-21.99,21.99-21.99h207.849c3.681,0,6.664,2.984,6.664,6.664v115.384
		c0,3.68-2.983,6.664-6.664,6.664h-207.85C1389.969,1181.595,1380.123,1171.75,1380.123,1159.605z"/>
	<path style="fill:none;stroke:#3F0000;stroke-width:18;stroke-miterlimit:10;" d="M1593.748,1206.329H1396.38
		c-22.638,0-40.99-18.352-40.99-40.99v-96.2c0-22.638,18.352-40.99,40.99-40.99h197.368c14.173,0,25.663,11.49,25.663,25.663
		v126.853C1619.411,1194.839,1607.921,1206.329,1593.748,1206.329z"/>
	<circle style="fill:#3F0000;" cx="1455.616" cy="1118.012" r="45.782"/>
</g>
</svg>
